{
	"asset":{
		"generator":"Khronos glTF Blender I/O v4.2.60",
		"version":"2.0"
	},
	"scene":0,
	"scenes":[
		{
			"name":"Scene",
			"nodes":[
				0
			]
		}
	],
	"nodes":[
		{
			"mesh":0,
			"name":"Cube"
		}
	],
	"materials":[
		{
			"doubleSided":true,
			"name":"Material.001",
			"pbrMetallicRoughness":{
				"baseColorTexture":{
					"index":0
				},
				"metallicFactor":0,
				"roughnessFactor":0.4291338622570038
			}
		}
	],
	"meshes":[
		{
			"extras":{
				"targetNames":[
					"Key 1"
				]
			},
			"name":"Cube",
			"primitives":[
				{
					"attributes":{
						"POSITION":0,
						"NORMAL":1,
						"TEXCOORD_0":2
					},
					"indices":3,
					"material":0,
					"targets":[
						{
							"POSITION":4,
							"NORMAL":5
						}
					]
				}
			],
			"weights":[
				0
			]
		}
	],
	"textures":[
		{
			"sampler":0,
			"source":0
		}
	],
	"images":[
		{
			"mimeType":"image/png",
			"name":"Untitled",
			"uri":"textures/Untitled.png"
		}
	],
	"accessors":[
		{
			"bufferView":0,
			"componentType":5126,
			"count":86094,
			"max":[
				1.0515272617340088,
				0.05019223690032959,
				1.0515271425247192
			],
			"min":[
				-1.0515271425247192,
				-0.05019223690032959,
				-1.0515272617340088
			],
			"type":"VEC3"
		},
		{
			"bufferView":1,
			"componentType":5126,
			"count":86094,
			"type":"VEC3"
		},
		{
			"bufferView":2,
			"componentType":5126,
			"count":86094,
			"type":"VEC2"
		},
		{
			"bufferView":3,
			"componentType":5125,
			"count":360000,
			"type":"SCALAR"
		},
		{
			"componentType":5126,
			"count":86094,
			"max":[
				0,
				0.08000000566244125,
				0
			],
			"min":[
				0,
				0,
				0
			],
			"sparse":{
				"count":4084,
				"indices":{
					"bufferView":4,
					"componentType":5125
				},
				"values":{
					"bufferView":5
				}
			},
			"type":"VEC3"
		},
		{
			"bufferView":6,
			"componentType":5126,
			"count":86094,
			"type":"VEC3"
		}
	],
	"bufferViews":[
		{
			"buffer":0,
			"byteLength":1033128,
			"byteOffset":0,
			"target":34962
		},
		{
			"buffer":0,
			"byteLength":1033128,
			"byteOffset":1033128,
			"target":34962
		},
		{
			"buffer":0,
			"byteLength":688752,
			"byteOffset":2066256,
			"target":34962
		},
		{
			"buffer":0,
			"byteLength":1440000,
			"byteOffset":2755008,
			"target":34963
		},
		{
			"buffer":0,
			"byteLength":16336,
			"byteOffset":4195008
		},
		{
			"buffer":0,
			"byteLength":49008,
			"byteOffset":4211344
		},
		{
			"buffer":0,
			"byteLength":1033128,
			"byteOffset":4260352,
			"target":34962
		}
	],
	"samplers":[
		{
			"magFilter":9729,
			"minFilter":9987
		}
	],
	"buffers":[
		{
			"byteLength":5293480,
			"uri":"intro_3.bin"
		}
	]
}
